<?xml version="1.0" standalone="no"?>
<!DOCTYPE svg PUBLIC "-//W3C//DTD SVG 20010904//EN"
 "http://www.w3.org/TR/2001/REC-SVG-20010904/DTD/svg10.dtd">
<svg version="1.0" xmlns="http://www.w3.org/2000/svg"
 width="1214.000000pt" height="1280.000000pt" viewBox="0 0 1214.000000 1280.000000"
 preserveAspectRatio="xMidYMid meet">
<g transform="translate(0.000000,1280.000000) scale(0.100000,-0.100000)"
fill="#000000" stroke="none">
<path d="M695 12770 c-3 -5 -15 -10 -26 -10 -24 0 -24 -2 7 -91 48 -140 85
-265 180 -609 178 -645 269 -885 422 -1115 233 -351 547 -523 989 -542 l132
-6 3 99 c5 168 -10 472 -32 629 -59 417 -189 728 -396 944 -166 175 -327 272
-784 478 -91 41 -234 110 -319 154 -85 43 -158 79 -162 79 -4 0 -11 -4 -14
-10z"/>
<path d="M2693 11193 c-70 -147 -107 -259 -128 -382 -19 -118 -27 -256 -18
-315 l8 -50 72 -24 c76 -26 109 -24 99 6 -3 9 -17 51 -32 92 -24 69 -26 84
-21 190 6 127 13 157 109 418 33 90 58 165 56 166 -13 9 -61 26 -72 26 -7 0
-40 -57 -73 -127z"/>
<path d="M2620 10320 c-331 -30 -546 -127 -723 -325 -104 -117 -231 -332 -302
-510 -40 -100 -79 -265 -131 -544 -74 -398 -113 -531 -227 -759 -102 -206
-199 -357 -481 -752 -272 -382 -395 -579 -505 -812 -114 -238 -184 -468 -215
-703 -9 -66 -21 -150 -26 -187 -12 -84 -13 -611 -1 -623 5 -6 23 -60 40 -121
131 -465 319 -860 568 -1193 106 -140 303 -345 436 -452 392 -316 858 -510
1439 -598 117 -18 183 -21 465 -21 241 0 361 4 448 16 892 116 1539 504 1932
1159 264 438 415 992 463 1685 14 203 12 326 -5 465 -28 222 -68 396 -140 604
-112 322 -248 570 -594 1090 -236 354 -335 514 -476 771 -343 624 -375 680
-518 895 -248 374 -468 627 -658 756 -132 89 -294 141 -493 159 -123 11 -171
11 -296 0z"/>
<path d="M7476 10055 c-10 -8 -23 -16 -28 -17 -5 -2 15 -78 45 -168 30 -91 96
-315 146 -499 110 -399 168 -588 226 -738 245 -628 608 -918 1177 -940 l147
-6 3 104 c8 260 -16 562 -63 799 -65 327 -224 643 -406 810 -173 159 -301 233
-771 446 -187 85 -348 165 -403 200 -45 28 -48 28 -73 9z"/>
<path d="M9488 8493 c-67 -142 -93 -211 -119 -318 -25 -103 -42 -292 -34 -375
l7 -66 61 -22 c71 -25 117 -29 117 -8 0 7 -12 40 -27 72 -26 55 -28 68 -28
189 0 152 6 177 100 430 36 97 65 178 65 181 0 4 -69 34 -80 34 -4 0 -32 -53
-62 -117z"/>
<path d="M9305 7594 c-133 -20 -258 -58 -365 -111 -83 -40 -108 -59 -200 -152
-152 -153 -269 -338 -356 -561 -44 -116 -75 -241 -128 -530 -114 -621 -199
-806 -674 -1472 -307 -432 -411 -595 -527 -833 -87 -179 -142 -325 -184 -495
-57 -228 -63 -295 -68 -676 l-5 -351 42 -149 c188 -670 512 -1218 938 -1585
334 -287 741 -488 1207 -595 310 -72 363 -77 740 -82 218 -2 369 1 400 7 28 6
111 20 185 31 700 109 1250 404 1631 875 59 72 169 233 169 245 0 4 -28 13
-62 19 -104 20 -215 80 -305 165 -44 42 -95 98 -114 126 l-34 51 -80 -8 c-184
-18 -318 1 -439 64 -135 70 -242 210 -280 365 -19 76 -22 258 -6 323 15 60 13
69 -19 88 -147 86 -287 277 -320 435 -32 152 13 326 118 459 56 71 116 129
179 171 28 19 52 38 52 41 0 3 -5 24 -10 46 -16 66 -13 246 6 322 51 209 201
361 414 419 75 21 267 24 340 5 51 -12 37 -22 138 103 93 115 228 202 362 232
64 15 69 18 59 35 -22 43 -140 225 -269 419 -252 378 -334 513 -550 910 -369
677 -599 1023 -865 1298 -213 222 -384 314 -650 351 -104 15 -360 12 -470 -5z"/>
</g>
</svg>
